<svg fill="none" height="32" width="32" xmlns="http://www.w3.org/2000/svg" xmlns:xlink="http://www.w3.org/1999/xlink">
    <style>
		path {
			fill: #222;
		}
		@media (prefers-color-scheme: dark) {
			path {
				fill: #fff;
			}
		}
	</style>
    <path d="m10.15638 16.08673v-.03309c0-3.61964 2.70763-6.58718 6.56592-6.58718 2.34851 0 3.76376.81986 4.98529 1.98229l-1.43652 1.6539c-1.02068-.94508-2.11224-1.58064-3.56295-1.58064-2.41704.00236-4.2056 2.00118-4.2056 4.49619v.03544c0 2.49264 1.76021 4.50803 4.1985 4.50803 1.56647 0 2.56352-.61903 3.65273-1.63499l1.4437 1.44832c-1.32556 1.38209-2.78097 2.25632-5.16494 2.25632-3.71415.00713-6.47614-2.88478-6.47614-6.54459z"/><path d="m15.97693 31.81028c-3.11754.00061-6.16519-.92354-8.75752-2.65528s-4.6129-4.19323-5.80614-7.07348c-1.19325-2.88005-1.50556-6.04936-.89748-9.10703.60809-3.05765 2.10927-5.8663 4.3137-8.07073s5.01308-3.70562 8.07073-4.3137c3.05765-.60809 6.22697-.29575 9.10713.8975 2.88005 1.19323 5.34174 3.21379 7.07348 5.80612s2.65569 5.64 2.65528 8.75754c-.00509 4.17804-1.66694 8.18347-4.62137 11.1379-2.95423 2.95423-6.95975 4.61628-11.13782 4.62117zm0-29.56902c-2.73144-.00047-5.4017.80908-7.67303 2.32626-2.27134 1.51716-4.04178 3.67383-5.08736 6.19722-1.04561 2.52339-1.31943 5.30019-.78684 7.97921.53261 2.67894 1.84767 5.14002 3.77894 7.07147 1.93126 1.93165 4.39195 3.24707 7.0709 3.78016 2.67892.53309 5.45576.25982 7.97934-.78538 2.52364-1.0452 4.68047-2.81525 6.19804-5.0864 1.51757-2.27095 2.3276-4.94115 2.3276-7.67258-.00489-3.66068-1.46132-7.17004-4.04956-9.75876-2.58824-2.58871-6.09733-4.04557-9.75801-4.05119z"/>
</svg>